<svg width="112" height="28" viewBox="0 0 112 28" fill="none" xmlns="http://www.w3.org/2000/svg">
<path d="M33.7222 17.1225L33.7326 17.0932C31.2952 17.0932 29.8041 15.6075 28.0112 14.3562C26.709 13.4472 25.2489 12.6619 23.148 12.6619C22.2039 12.6619 21.4026 12.6693 20.7222 12.6902H18.678C19.3802 12.7148 19.9434 13.2883 19.9434 13.9971C19.9434 14.722 19.3554 15.3098 18.6307 15.3098H15.72C15.7351 15.3107 15.7501 15.3145 15.7663 15.3145H18.574H20.4198C21.3581 15.4678 22.0754 16.2805 22.0754 17.2623C22.0754 18.007 21.6596 18.6468 21.051 18.9834C20.9036 19.0221 20.1919 19.2111 19.2412 19.4634C18.6298 19.6108 18.0478 19.7667 17.5032 19.9237L17.3851 19.9548C15.342 20.4955 13.1419 21.0747 12.7431 21.1683C12.4785 21.1825 12.2375 21.1701 12.0249 21.1181L4.69607 16.3665L3.36828 15.4064V15.4091C3.305 15.3667 3.23775 15.3308 3.16889 15.2958C3.07145 15.2467 2.97042 15.2021 2.86353 15.1702C2.77941 15.1446 2.69251 15.1266 2.60457 15.1135C2.51009 15.0993 2.4147 15.0887 2.31743 15.0887C2.18599 15.0887 2.05848 15.102 1.93558 15.1276C0.852559 15.221 1.52588e-05 16.1198 1.52588e-05 17.2265C1.52588e-05 17.8115 0.242964 18.3349 0.629371 18.7158L0.62755 18.7177L0.637913 18.7253C0.79202 18.8756 0.964865 19.005 1.15764 19.1033L1.66233 19.4701L13.1503 27.7977L13.1512 27.7968C13.1975 27.8148 13.2447 27.8326 13.292 27.8515C13.551 27.9413 13.8242 28 14.1124 28C14.2816 28 14.4459 27.982 14.6056 27.9499L14.6623 27.9357C18.5541 26.9443 26.5964 24.9012 30.3604 23.9732C30.4531 23.9381 30.54 23.9071 30.6318 23.8729C31.5919 23.631 32.9017 23.3448 33.7221 23.3448V22.7956L33.7325 22.7947L33.7221 22.0396V17.288V17.1225H33.7222Z" fill="#F47C26"/>
<path d="M13.347 9.01671C13.4944 8.97713 14.2061 8.78811 15.1558 8.53673C15.7681 8.38935 16.3493 8.23336 16.8947 8.07641L17.0118 8.04531C19.0551 7.50463 21.255 6.92544 21.6549 6.83182C21.9185 6.81764 22.1605 6.82891 22.3731 6.88199L29.702 11.6327L31.0289 12.5928L31.0298 12.591C31.0921 12.6335 31.1603 12.6693 31.2282 12.7035C31.3265 12.7535 31.4276 12.798 31.5345 12.83C31.6175 12.8556 31.7055 12.8735 31.7934 12.8866C31.8868 12.9008 31.9824 12.9103 32.0806 12.9103C32.211 12.9103 32.3387 12.8972 32.4624 12.8716C33.5445 12.7779 34.3979 11.8802 34.3979 10.7735C34.3979 10.1876 34.154 9.66401 33.7686 9.28324L33.7695 9.28124L33.76 9.27378C33.6059 9.1244 33.4331 8.99496 33.2402 8.89666L32.7355 8.52899L21.2476 0.201453L21.2466 0.203219C21.1994 0.185222 21.1522 0.167396 21.1049 0.148545C20.8469 0.0587917 20.5737 1.90735e-05 20.2845 1.90735e-05C20.1162 1.90735e-05 19.9519 0.0180165 19.7922 0.0492821L19.7346 0.064373C15.8428 1.05468 7.80043 3.09885 4.03733 4.02685C3.94461 4.06102 3.85668 4.09297 3.76596 4.12714C2.80584 4.36815 1.49599 4.65439 0.675618 4.65439V5.20452L0.665253 5.20544L0.675618 5.96054V10.7112V10.8774L0.665253 10.9067C3.10164 10.9067 4.59373 12.3924 6.38664 13.6437C7.6888 14.5518 9.14798 15.338 11.2498 15.338C12.1939 15.338 12.9952 15.3295 13.6756 15.3096H15.7199H18.6306C19.3553 15.3096 19.9433 14.7219 19.9433 13.9969C19.9433 13.2881 19.38 12.7146 18.6779 12.6901C18.6618 12.6891 18.6466 12.6853 18.6306 12.6853H15.8238H13.9781C13.0398 12.5312 12.3224 11.7194 12.3224 10.7376C12.3225 9.99301 12.7383 9.3522 13.347 9.01671Z" fill="#0077B6"/>
<path d="M52.506 22.5106C51.6122 22.5106 50.9738 22.335 50.5908 21.9839C50.2078 21.6328 50.0162 21.1301 50.0162 20.4757C50.0162 20.1246 50.0482 19.5022 50.112 18.6084C50.1758 17.7147 50.2477 16.7092 50.3275 15.592H46.0662L45.5874 22.1515C45.5714 22.2792 45.5395 22.3749 45.4916 22.4388C45.4437 22.4867 45.348 22.5106 45.2043 22.5106H43.8876C42.9939 22.5106 42.3555 22.335 41.9725 21.9839C41.5894 21.6328 41.3979 21.1301 41.3979 20.4757C41.3979 20.1565 41.4218 19.6139 41.4697 18.8478C41.5176 18.0658 41.5814 17.18 41.6612 16.1905C41.741 15.201 41.8208 14.1556 41.9006 13.0544C41.9804 11.9531 42.0602 10.9158 42.14 9.9422C42.2198 8.96865 42.2837 8.1148 42.3316 7.38064C42.3794 6.64649 42.4034 6.14375 42.4034 5.87243C42.4034 5.63304 42.5311 5.51334 42.7864 5.51334H44.1031C45.0767 5.51334 45.731 5.72082 46.0662 6.13577C46.4013 6.55073 46.5689 7.16518 46.5689 7.97914C46.5689 8.10682 46.545 8.56167 46.4971 9.34371C46.4492 10.1098 46.3854 11.0355 46.3056 12.1207H50.5908C50.6387 11.4185 50.6865 10.7322 50.7344 10.0619C50.7983 9.39159 50.8461 8.77713 50.8781 8.21854C50.9259 7.65994 50.9579 7.18114 50.9738 6.78215C51.0057 6.36719 51.0217 6.06395 51.0217 5.87243C51.0217 5.63304 51.1494 5.51334 51.4047 5.51334H52.7214C53.695 5.51334 54.3493 5.72082 54.6845 6.13577C55.0197 6.55073 55.1872 7.16518 55.1872 7.97914C55.1872 8.05894 55.1713 8.31429 55.1394 8.74521C55.1234 9.17613 55.0915 9.71876 55.0436 10.3731C54.9957 11.0275 54.9399 11.7616 54.876 12.5756C54.8281 13.3736 54.7723 14.1955 54.7084 15.0414C54.6606 15.8873 54.6047 16.7172 54.5409 17.5311C54.493 18.3291 54.4451 19.0553 54.3972 19.7096C54.3493 20.364 54.3094 20.9146 54.2775 21.3615C54.2456 21.7924 54.2217 22.0557 54.2057 22.1515C54.1897 22.2792 54.1578 22.3749 54.1099 22.4388C54.0621 22.4867 53.9663 22.5106 53.8227 22.5106H52.506Z" fill="url(#paint0_linear_19_349)"/>
<path d="M66.0039 5.25C67.169 5.25 68.1665 5.41758 68.9964 5.75274C69.8263 6.07193 70.5046 6.55073 71.0313 7.18912C71.5579 7.81156 71.941 8.57763 72.1804 9.48735C72.4198 10.3811 72.5395 11.4025 72.5395 12.5516C72.5395 13.19 72.4916 13.8843 72.3958 14.6344C72.316 15.3845 72.1564 16.1426 71.917 16.9087C71.6936 17.6588 71.3824 18.385 70.9834 19.0872C70.5844 19.7894 70.0657 20.4119 69.4273 20.9545C68.8049 21.4972 68.0548 21.936 67.177 22.2712C66.2992 22.5904 65.2618 22.75 64.0648 22.75C62.7401 22.75 61.6389 22.5505 60.7611 22.1515C59.8993 21.7525 59.205 21.2179 58.6783 20.5475C58.1676 19.8613 57.8005 19.0553 57.5771 18.1296C57.3696 17.2039 57.2659 16.2144 57.2659 15.1611C57.2659 13.9162 57.4095 12.7033 57.6968 11.5222C57.9841 10.3252 58.4629 9.26391 59.1332 8.33824C59.8195 7.41256 60.7212 6.67043 61.8384 6.11183C62.9556 5.53728 64.3441 5.25 66.0039 5.25ZM65.5012 8.96067C64.9426 8.96067 64.4558 9.06441 64.0408 9.27189C63.6418 9.46341 63.2987 9.72674 63.0114 10.0619C62.7401 10.3971 62.5167 10.7721 62.3411 11.1871C62.1815 11.602 62.0538 12.0329 61.9581 12.4798C61.8623 12.9107 61.7985 13.3337 61.7666 13.7486C61.7346 14.1476 61.7187 14.5067 61.7187 14.8259C61.7187 16.2783 61.9581 17.3396 62.4369 18.0099C62.9316 18.6802 63.6259 19.0154 64.5196 19.0154C65.2538 19.0154 65.8523 18.784 66.3151 18.3211C66.778 17.8423 67.1371 17.2758 67.3924 16.6214C67.6637 15.9511 67.8473 15.2648 67.943 14.5626C68.0388 13.8444 68.0867 13.2379 68.0867 12.7432C68.0867 11.5781 67.8872 10.6604 67.4882 9.99008C67.0892 9.30381 66.4268 8.96067 65.5012 8.96067Z" fill="url(#paint1_linear_19_349)"/>
<path d="M77.0387 22.5106C76.129 22.5106 75.4826 22.335 75.0995 21.9839C74.7325 21.6168 74.5489 21.0822 74.5489 20.38C74.5489 20.1725 74.5569 19.8453 74.5729 19.3984C74.6048 18.9356 74.6447 18.393 74.6926 17.7705C74.7404 17.1481 74.7883 16.4698 74.8362 15.7356C74.9 15.0015 74.9639 14.2514 75.0277 13.4853C75.1075 12.5437 75.1714 11.7377 75.2192 11.0674C75.2831 10.3811 75.331 9.79856 75.3629 9.31977C75.3948 8.82501 75.4187 8.41803 75.4347 8.09884C75.4666 7.76368 75.4826 7.4764 75.4826 7.237C75.4985 6.98165 75.5065 6.75023 75.5065 6.54275C75.5225 6.33527 75.5305 6.11183 75.5305 5.87243C75.5305 5.74476 75.5704 5.65698 75.6502 5.6091C75.73 5.54526 75.8098 5.51334 75.8896 5.51334C76.3045 5.51334 76.7594 5.50536 77.2541 5.4894C77.7489 5.45748 78.2436 5.42556 78.7384 5.39364C79.2331 5.36172 79.7119 5.33778 80.1748 5.32182C80.6376 5.2899 81.0446 5.27394 81.3957 5.27394C82.4171 5.27394 83.2949 5.40162 84.0291 5.65698C84.7632 5.89637 85.3538 6.25547 85.8006 6.73427C86.2635 7.1971 86.5986 7.76368 86.8061 8.434C87.0295 9.10431 87.1413 9.87038 87.1413 10.7322C87.1413 11.6738 87.0136 12.5836 86.7582 13.4614C86.5188 14.3232 86.1358 15.0893 85.6091 15.7596C85.0824 16.4299 84.4041 16.9645 83.5742 17.3635C82.7443 17.7625 81.7548 17.962 80.6057 17.962C79.9194 17.962 79.3369 17.8902 78.8581 17.7466L78.5229 22.1515C78.507 22.2792 78.4751 22.3749 78.4272 22.4388C78.3793 22.4867 78.2835 22.5106 78.1399 22.5106H77.0387ZM80.9169 8.86491C80.7094 8.86491 80.478 8.88087 80.2227 8.91279C79.9673 8.92875 79.696 8.95269 79.4087 8.98461C79.3768 9.65493 79.3369 10.4689 79.289 11.4265C79.2411 12.3841 79.1773 13.3895 79.0975 14.4429C79.3369 14.5067 79.5683 14.5546 79.7917 14.5865C80.0311 14.6025 80.2466 14.6105 80.4381 14.6105C80.9967 14.6105 81.4436 14.4828 81.7787 14.2274C82.1299 13.9561 82.4012 13.6289 82.5927 13.2459C82.7842 12.8629 82.9119 12.4639 82.9757 12.0489C83.0396 11.6339 83.0715 11.2749 83.0715 10.9716C83.0715 10.2853 82.9119 9.76664 82.5927 9.41553C82.2895 9.04845 81.7309 8.86491 80.9169 8.86491Z" fill="url(#paint2_linear_19_349)"/>
<path d="M91.1127 22.5106C90.2189 22.5106 89.5805 22.335 89.1975 21.9839C88.8144 21.6328 88.6229 21.1301 88.6229 20.4757C88.6229 20.1565 88.6469 19.6139 88.6947 18.8478C88.7426 18.0658 88.8065 17.18 88.8863 16.1905C88.9661 15.201 89.0458 14.1556 89.1256 13.0544C89.2054 11.9531 89.2852 10.9158 89.365 9.9422C89.4448 8.96865 89.5087 8.1148 89.5566 7.38064C89.6044 6.64649 89.6284 6.14375 89.6284 5.87243C89.6284 5.63304 89.7561 5.51334 90.0114 5.51334H98.4382C98.534 5.51334 98.6218 5.53728 98.7016 5.58516C98.7814 5.63304 98.8213 5.72082 98.8213 5.84849L98.7255 7.26094C98.6936 7.73974 98.5579 8.13076 98.3185 8.434C98.0951 8.72127 97.6243 8.86491 96.9061 8.86491H93.6024L93.363 12.2404H96.7624C96.8582 12.2404 96.946 12.2644 97.0258 12.3122C97.1056 12.3601 97.1455 12.4479 97.1455 12.5756L97.0497 13.988C97.0178 14.4668 96.8821 14.8578 96.6427 15.1611C96.4193 15.4484 95.9485 15.592 95.2303 15.592H93.1475L92.8842 19.159H98.151C98.2467 19.159 98.3345 19.1909 98.4143 19.2548C98.4941 19.3027 98.534 19.3825 98.534 19.4942L98.4382 20.9066C98.4063 21.3854 98.2707 21.7764 98.0313 22.0797C97.8078 22.367 97.337 22.5106 96.6188 22.5106H91.1127Z" fill="url(#paint3_linear_19_349)"/>
<path d="M107.2 5.27394C108.7 5.27394 109.809 5.60112 110.527 6.25547C111.261 6.90983 111.629 7.76368 111.629 8.81703C111.629 9.71078 111.381 10.3971 110.886 10.8759C110.392 11.3387 109.681 11.5701 108.756 11.5701C108.468 11.5701 108.285 11.5462 108.205 11.4983C108.125 11.4345 108.085 11.3148 108.085 11.1392C108.085 10.9796 108.069 10.7721 108.038 10.5168C108.022 10.2614 107.966 10.014 107.87 9.77462C107.774 9.53523 107.623 9.33573 107.415 9.17613C107.208 9.00057 106.92 8.91279 106.553 8.91279C106.043 8.91279 105.588 9.07239 105.189 9.39159C104.79 9.69482 104.59 10.0938 104.59 10.5886C104.59 11.0195 104.75 11.3706 105.069 11.6419C105.404 11.9132 105.819 12.1686 106.314 12.408C106.809 12.6314 107.343 12.8629 107.918 13.1023C108.508 13.3417 109.051 13.6609 109.546 14.0598C110.04 14.4429 110.447 14.9297 110.767 15.5202C111.102 16.0947 111.269 16.8289 111.269 17.7226C111.269 18.4249 111.15 19.0872 110.91 19.7096C110.687 20.3161 110.344 20.8508 109.881 21.3136C109.434 21.7605 108.859 22.1116 108.157 22.367C107.471 22.6223 106.665 22.75 105.739 22.75C104.941 22.75 104.199 22.6622 103.513 22.4867C102.843 22.3111 102.252 22.0956 101.741 21.8403C101.247 21.569 100.856 21.2817 100.568 20.9785C100.281 20.6593 100.137 20.372 100.137 20.1166C100.137 19.0633 100.193 18.3052 100.305 17.8423C100.433 17.3795 100.656 17.1481 100.975 17.1481C101.199 17.1481 101.43 17.2438 101.67 17.4354C101.925 17.6269 102.212 17.8423 102.531 18.0817C102.851 18.3211 103.218 18.5366 103.633 18.7281C104.064 18.9196 104.558 19.0154 105.117 19.0154C105.34 19.0154 105.556 18.9994 105.763 18.9675C105.987 18.9196 106.178 18.8478 106.338 18.7521C106.513 18.6563 106.649 18.5286 106.745 18.369C106.857 18.2094 106.912 18.0179 106.912 17.7945C106.912 17.3955 106.761 17.0763 106.458 16.8369C106.154 16.5975 105.771 16.382 105.308 16.1905C104.846 15.983 104.343 15.7755 103.8 15.5681C103.274 15.3446 102.779 15.0494 102.316 14.6823C101.853 14.2992 101.47 13.8125 101.167 13.222C100.864 12.6314 100.712 11.8733 100.712 10.9477C100.712 9.91028 100.903 9.03249 101.287 8.31429C101.686 7.5961 102.188 7.01357 102.795 6.56669C103.417 6.10385 104.111 5.77668 104.877 5.58516C105.66 5.37768 106.434 5.27394 107.2 5.27394Z" fill="url(#paint4_linear_19_349)"/>
<defs>
<linearGradient id="paint0_linear_19_349" x1="77.875" y1="2.625" x2="76.125" y2="24.0625" gradientUnits="userSpaceOnUse">
<stop stop-color="#0077B6"/>
<stop offset="1" stop-color="#F47C26"/>
</linearGradient>
<linearGradient id="paint1_linear_19_349" x1="77.875" y1="2.625" x2="76.125" y2="24.0625" gradientUnits="userSpaceOnUse">
<stop stop-color="#0077B6"/>
<stop offset="1" stop-color="#F47C26"/>
</linearGradient>
<linearGradient id="paint2_linear_19_349" x1="77.875" y1="2.625" x2="76.125" y2="24.0625" gradientUnits="userSpaceOnUse">
<stop stop-color="#0077B6"/>
<stop offset="1" stop-color="#F47C26"/>
</linearGradient>
<linearGradient id="paint3_linear_19_349" x1="77.875" y1="2.625" x2="76.125" y2="24.0625" gradientUnits="userSpaceOnUse">
<stop stop-color="#0077B6"/>
<stop offset="1" stop-color="#F47C26"/>
</linearGradient>
<linearGradient id="paint4_linear_19_349" x1="77.875" y1="2.625" x2="76.125" y2="24.0625" gradientUnits="userSpaceOnUse">
<stop stop-color="#0077B6"/>
<stop offset="1" stop-color="#F47C26"/>
</linearGradient>
</defs>
</svg>
