<svg width="26" height="26" viewBox="0 0 26 26" fill="none" xmlns="http://www.w3.org/2000/svg">
<path d="M19.1636 12.1875H4.0625C3.84701 12.1875 3.64035 12.2732 3.48798 12.4255C3.3356 12.5779 3.25 12.7846 3.25 13C3.25 13.2155 3.3356 13.4222 3.48798 13.5746C3.64035 13.7269 3.84701 13.8125 4.0625 13.8125H19.1636L13.2372 19.7373C13.0847 19.8899 12.999 20.0968 12.999 20.3125C12.999 20.5283 13.0847 20.7352 13.2372 20.8878C13.3898 21.0404 13.5967 21.1261 13.8125 21.1261C14.0283 21.1261 14.2352 21.0404 14.3878 20.8878L21.7003 13.5753C21.7759 13.4998 21.8359 13.4102 21.8769 13.3115C21.9179 13.2127 21.939 13.1069 21.939 13C21.939 12.8932 21.9179 12.7874 21.8769 12.6886C21.8359 12.5899 21.7759 12.5003 21.7003 12.4248L14.3878 5.1123C14.2352 4.95973 14.0283 4.87402 13.8125 4.87402C13.5967 4.87402 13.3898 4.95973 13.2372 5.1123C13.0847 5.26487 12.999 5.47179 12.999 5.68755C12.999 5.90331 13.0847 6.11023 13.2372 6.2628L19.1636 12.1875Z" fill="#FAFAFA"/>
</svg>
