<svg width="24" height="24" viewBox="0 0 24 24" fill="none" xmlns="http://www.w3.org/2000/svg">
<path fill-rule="evenodd" clip-rule="evenodd" d="M4.66514 22.5001C3.82664 22.5001 3.03014 22.1671 2.43014 21.5746C1.83014 20.9821 1.50464 20.1781 1.50464 19.3396V4.65464C1.50464 3.81614 1.83764 3.01964 2.43014 2.41964C3.02264 1.81964 3.82664 1.49414 4.66514 1.49414H19.3501C20.1886 1.49414 20.9851 1.82714 21.5851 2.41964C22.1851 3.01214 22.5106 3.81614 22.5106 4.65464V19.3396C22.5106 20.1781 22.1776 20.9746 21.5851 21.5746C20.9926 22.1746 20.1886 22.5001 19.3501 22.5001H4.66514ZM17.4901 13.6351H15.2701V20.9701H19.3501C19.5644 20.9707 19.7767 20.929 19.9748 20.8472C20.1729 20.7655 20.3529 20.6454 20.5044 20.4939C20.6559 20.3424 20.776 20.1624 20.8577 19.9643C20.9395 19.7662 20.9812 19.5539 20.9806 19.3396V4.65464C20.9808 4.44046 20.9388 4.22835 20.8569 4.03044C20.7751 3.83253 20.655 3.65271 20.5035 3.50126C20.3521 3.34982 20.1722 3.22972 19.9743 3.14785C19.7764 3.06598 19.5643 3.02394 19.3501 3.02414H4.66514C4.23307 3.02533 3.81903 3.19749 3.51351 3.50301C3.20799 3.80854 3.03583 4.22257 3.03464 4.65464V19.3396C3.03583 19.7717 3.20799 20.1857 3.51351 20.4913C3.81903 20.7968 4.23307 20.969 4.66514 20.9701H12.8251V13.6351H10.3801V11.1901H12.8251V9.87614C12.8251 7.38614 14.0371 6.29114 16.1101 6.29114C17.0806 6.29114 17.6026 6.36164 17.8501 6.39614L17.8651 6.39764V8.73764H16.4551C15.7441 8.73764 15.4081 9.04214 15.3061 9.65564C15.2816 9.81545 15.2701 9.97697 15.2716 10.1386V11.1841H17.8366L17.4871 13.6291L17.4901 13.6351Z" fill="black"/>
</svg>
