<svg width="28" height="28" viewBox="0 0 28 28" fill="none" xmlns="http://www.w3.org/2000/svg">
<path d="M25.6666 14V23.3333C25.6666 23.9522 25.4208 24.5456 24.9832 24.9832C24.5456 25.4208 23.9521 25.6666 23.3333 25.6666H4.66663C4.04779 25.6666 3.45429 25.4208 3.01671 24.9832C2.57913 24.5456 2.33329 23.9522 2.33329 23.3333V14C2.02387 14 1.72713 13.8771 1.50833 13.6583C1.28954 13.4395 1.16663 13.1427 1.16663 12.8333V9.33331C1.16663 8.71448 1.41246 8.12098 1.85004 7.6834C2.28763 7.24581 2.88112 6.99998 3.49996 6.99998H7.19829C7.06644 6.62517 6.99937 6.23064 6.99996 5.83331C6.99996 4.90506 7.36871 4.01482 8.02509 3.35844C8.68146 2.70206 9.5717 2.33331 10.5 2.33331C11.6666 2.33331 12.6933 2.91665 13.335 3.77998V3.76831L14 4.66665L14.665 3.76831V3.77998C15.3066 2.91665 16.3333 2.33331 17.5 2.33331C18.4282 2.33331 19.3185 2.70206 19.9748 3.35844C20.6312 4.01482 21 4.90506 21 5.83331C21.0005 6.23064 20.9335 6.62517 20.8016 6.99998H24.5C25.1188 6.99998 25.7123 7.24581 26.1499 7.6834C26.5875 8.12098 26.8333 8.71448 26.8333 9.33331V12.8333C26.8333 13.1427 26.7104 13.4395 26.4916 13.6583C26.2728 13.8771 25.976 14 25.6666 14ZM4.66663 23.3333H12.8333V14H4.66663V23.3333ZM23.3333 23.3333V14H15.1666V23.3333H23.3333ZM10.5 4.66665C10.1905 4.66665 9.89379 4.78956 9.675 5.00836C9.45621 5.22715 9.33329 5.52389 9.33329 5.83331C9.33329 6.14273 9.45621 6.43948 9.675 6.65827C9.89379 6.87706 10.1905 6.99998 10.5 6.99998C10.8094 6.99998 11.1061 6.87706 11.3249 6.65827C11.5437 6.43948 11.6666 6.14273 11.6666 5.83331C11.6666 5.52389 11.5437 5.22715 11.3249 5.00836C11.1061 4.78956 10.8094 4.66665 10.5 4.66665ZM17.5 4.66665C17.1905 4.66665 16.8938 4.78956 16.675 5.00836C16.4562 5.22715 16.3333 5.52389 16.3333 5.83331C16.3333 6.14273 16.4562 6.43948 16.675 6.65827C16.8938 6.87706 17.1905 6.99998 17.5 6.99998C17.8094 6.99998 18.1061 6.87706 18.3249 6.65827C18.5437 6.43948 18.6666 6.14273 18.6666 5.83331C18.6666 5.52389 18.5437 5.22715 18.3249 5.00836C18.1061 4.78956 17.8094 4.66665 17.5 4.66665ZM3.49996 9.33331V11.6666H12.8333V9.33331H3.49996ZM15.1666 9.33331V11.6666H24.5V9.33331H15.1666Z" fill="#FAFAFA"/>
</svg>
