<svg width="34" height="33" viewBox="0 0 34 33" fill="none" xmlns="http://www.w3.org/2000/svg">
<path fill-rule="evenodd" clip-rule="evenodd" d="M9.25977 16.4057C9.25977 13.189 9.25977 11.5806 10.0263 10.4222C10.3686 9.90485 10.8116 9.46183 11.3289 9.11954C12.4873 8.35303 14.0957 8.35303 17.3124 8.35303C20.5291 8.35303 22.1375 8.35303 23.2959 9.11954C23.8132 9.46183 24.2562 9.90485 24.5985 10.4222C25.365 11.5806 25.365 13.189 25.365 16.4057C25.365 19.6224 25.365 21.2307 24.5985 22.3892C24.2562 22.9065 23.8132 23.3495 23.2959 23.6918C22.1375 24.4583 20.5291 24.4583 17.3124 24.4583C14.0957 24.4583 12.4873 24.4583 11.3289 23.6918C10.8116 23.3495 10.3686 22.9065 10.0263 22.3892C9.25977 21.2307 9.25977 19.6224 9.25977 16.4057ZM21.4812 16.4059C21.4812 18.7083 19.6147 20.5748 17.3123 20.5748C15.0098 20.5748 13.1433 18.7083 13.1433 16.4059C13.1433 14.1034 15.0098 12.2369 17.3123 12.2369C19.6147 12.2369 21.4812 14.1034 21.4812 16.4059ZM17.3123 19.1643C18.8357 19.1643 20.0707 17.9293 20.0707 16.4059C20.0707 14.8824 18.8357 13.6474 17.3123 13.6474C15.7888 13.6474 14.5538 14.8824 14.5538 16.4059C14.5538 17.9293 15.7888 19.1643 17.3123 19.1643ZM21.6454 13.007C22.1864 13.007 22.6249 12.5685 22.6249 12.0275C22.6249 11.4865 22.1864 11.0479 21.6454 11.0479C21.1044 11.0479 20.6658 11.4865 20.6658 12.0275C20.6658 12.5685 21.1044 13.007 21.6454 13.007Z" fill="#071210"/>
<circle cx="17" cy="16.5" r="16.25" stroke="#071210" stroke-width="0.5"/>
</svg>
