<svg width="34" height="33" viewBox="0 0 34 33" fill="none" xmlns="http://www.w3.org/2000/svg">
<path d="M20.0208 10.0829V10.0801H20.776L21.0519 10.1335C21.2359 10.1681 21.4029 10.2135 21.5529 10.2697C21.703 10.3259 21.8482 10.3915 21.9886 10.4664C22.129 10.5413 22.2563 10.6176 22.3705 10.6953C22.4838 10.7721 22.5855 10.8536 22.6755 10.9398C22.7646 11.0269 22.9035 11.0493 23.0923 11.0072C23.2811 10.9651 23.4844 10.9065 23.7022 10.8316C23.9201 10.7567 24.1355 10.6724 24.3485 10.5788C24.5615 10.4851 24.6912 10.4256 24.7377 10.4004C24.7832 10.3741 24.8074 10.3601 24.8103 10.3582L24.8132 10.354L24.8277 10.347L24.8422 10.34L24.8567 10.3329L24.8713 10.3259L24.8742 10.3217L24.8785 10.3189L24.8829 10.3161L24.8858 10.3119L24.9003 10.3076L24.9148 10.3048L24.9119 10.3259L24.9076 10.347L24.9003 10.368L24.8931 10.3891L24.8858 10.4032L24.8785 10.4172L24.8713 10.4383C24.8664 10.4523 24.8616 10.4711 24.8567 10.4945C24.8519 10.5179 24.8059 10.6115 24.7188 10.7754C24.6317 10.9393 24.5227 11.1055 24.392 11.2741C24.2613 11.4427 24.1442 11.57 24.0406 11.6562C23.936 11.7433 23.8668 11.8041 23.8329 11.8388C23.799 11.8744 23.7579 11.9072 23.7095 11.9371L23.6369 11.9835L23.6223 11.9905L23.6078 11.9975L23.6049 12.0017L23.6006 12.0046L23.5962 12.0074L23.5933 12.0116L23.5788 12.0186L23.5643 12.0256L23.5614 12.0298L23.557 12.0327L23.5526 12.0355L23.5497 12.0397L23.5468 12.0439L23.5425 12.0467L23.5381 12.0495L23.5352 12.0537H23.6078L24.0145 11.9694C24.2855 11.9132 24.5445 11.8454 24.7914 11.7658L25.1835 11.6393L25.2271 11.6253L25.2488 11.6183L25.2634 11.6112L25.2779 11.6042L25.2924 11.5972L25.3069 11.5902L25.336 11.5859L25.365 11.5831V11.6112L25.3578 11.614L25.3505 11.6183L25.3476 11.6225L25.3432 11.6253L25.3389 11.6281L25.336 11.6323L25.3331 11.6365L25.3287 11.6393L25.3244 11.6421L25.3215 11.6464L25.3186 11.6506L25.3142 11.6534L25.3069 11.6674L25.2997 11.6815L25.2953 11.6843C25.2934 11.6871 25.2319 11.7667 25.1109 11.9231C24.9899 12.0804 24.9245 12.16 24.9148 12.1619C24.9052 12.1647 24.8916 12.1787 24.8742 12.204C24.8577 12.2302 24.7551 12.3347 24.5663 12.5173C24.3775 12.6999 24.1926 12.8624 24.0116 13.0047C23.8296 13.148 23.7376 13.3241 23.7356 13.5329C23.7327 13.7408 23.7216 13.9759 23.7022 14.2381C23.6829 14.5003 23.6466 14.7836 23.5933 15.0879C23.5401 15.3923 23.4578 15.7365 23.3464 16.1204C23.2351 16.5044 23.0995 16.879 22.9398 17.2442C22.7801 17.6094 22.613 17.9372 22.4388 18.2275C22.2645 18.5178 22.1048 18.7636 21.9595 18.965C21.8143 19.1663 21.6667 19.356 21.5166 19.5339C21.3666 19.7118 21.1768 19.9123 20.9474 20.1351C20.7169 20.3571 20.5911 20.4788 20.5698 20.5004C20.5475 20.521 20.4526 20.5978 20.2851 20.7307C20.1186 20.8646 19.9395 20.9986 19.7478 21.1325C19.5571 21.2655 19.3818 21.3764 19.2221 21.4654C19.0623 21.5544 18.8697 21.656 18.6441 21.7702C18.4195 21.8854 18.1765 21.9922 17.9151 22.0905C17.6537 22.1888 17.3777 22.2801 17.0873 22.3644C16.7969 22.4487 16.5161 22.5143 16.245 22.5611C15.9739 22.6079 15.6665 22.6477 15.3228 22.6805L14.8073 22.7297V22.7367H13.8633V22.7297L13.7399 22.7226C13.6576 22.718 13.5898 22.7133 13.5366 22.7086C13.4834 22.7039 13.2825 22.6781 12.9339 22.6313C12.5854 22.5845 12.3119 22.5377 12.1134 22.4909C11.9149 22.444 11.6196 22.3551 11.2275 22.224C10.8354 22.0929 10.5 21.9603 10.2211 21.8264C9.94329 21.6934 9.76902 21.6092 9.69834 21.5736C9.62863 21.5389 9.55021 21.4958 9.46308 21.4443L9.33238 21.3671L9.32949 21.3629L9.32512 21.3601L9.32076 21.3572L9.31785 21.353L9.30333 21.346L9.28881 21.339L9.28592 21.3348L9.28155 21.332L9.27719 21.3291L9.27429 21.3249L9.2714 21.3207L9.26703 21.3179H9.25977V21.2898L9.27429 21.2926L9.28881 21.2968L9.35416 21.3039C9.39773 21.3085 9.51633 21.3156 9.70996 21.3249C9.9036 21.3343 10.1093 21.3343 10.3272 21.3249C10.545 21.3156 10.7677 21.2945 10.9952 21.2617C11.2227 21.2289 11.4914 21.1728 11.8012 21.0932C12.111 21.0135 12.3956 20.919 12.6551 20.8094C12.9136 20.6989 13.0975 20.6165 13.2069 20.5622C13.3154 20.5088 13.4809 20.4095 13.7036 20.2644L14.0376 20.0466L14.0405 20.0424L14.0449 20.0396L14.0492 20.0368L14.0521 20.0326L14.055 20.0284L14.0594 20.0256L14.0638 20.0227L14.0667 20.0185L14.0812 20.0143L14.0957 20.0115L14.0986 19.9975L14.103 19.9834L14.1073 19.9806L14.1102 19.9764L13.994 19.9694C13.9166 19.9647 13.8416 19.96 13.7689 19.9553C13.6963 19.9506 13.5826 19.9296 13.4277 19.8921C13.2728 19.8546 13.1058 19.7985 12.9267 19.7235C12.7475 19.6486 12.5733 19.5597 12.4038 19.4566C12.2344 19.3536 12.112 19.2679 12.0364 19.1996C11.9619 19.1321 11.8651 19.0366 11.746 18.913C11.6279 18.7885 11.5252 18.6606 11.4381 18.5295C11.351 18.3984 11.2677 18.2472 11.1883 18.0758L11.0678 17.8201L11.0605 17.7991L11.0533 17.778L11.0489 17.7639L11.046 17.7499L11.0678 17.7527L11.0896 17.7569L11.2493 17.778C11.3558 17.792 11.5228 17.7967 11.7503 17.792C11.9779 17.7874 12.1352 17.778 12.2223 17.7639C12.3095 17.7499 12.3627 17.7405 12.3821 17.7358L12.4111 17.7288L12.4474 17.7218L12.4837 17.7148L12.4866 17.7106L12.491 17.7078L12.4954 17.7049L12.4982 17.7007L12.4692 17.6937L12.4402 17.6867L12.4111 17.6797L12.3821 17.6726L12.353 17.6656C12.3337 17.6609 12.2998 17.6516 12.2514 17.6375C12.203 17.6235 12.0723 17.572 11.8593 17.483C11.6463 17.394 11.4768 17.3074 11.351 17.2231C11.2248 17.1386 11.1045 17.0462 10.9908 16.9464C10.8776 16.8453 10.7532 16.7151 10.6176 16.5559C10.4821 16.3967 10.3611 16.2117 10.2545 16.001C10.1481 15.7903 10.0682 15.589 10.0149 15.397C9.96189 15.2061 9.92689 15.011 9.91038 14.814L9.88423 14.519L9.89875 14.5218L9.91327 14.526L9.92779 14.5331L9.94232 14.5401L9.95684 14.5471L9.97136 14.5541L10.1965 14.6525C10.3465 14.718 10.5329 14.7742 10.7556 14.821C10.9783 14.8679 11.1114 14.8936 11.1549 14.8983L11.2203 14.9053H11.351L11.3481 14.9011L11.3437 14.8983L11.3394 14.8955L11.3365 14.8913L11.3336 14.8871L11.3292 14.8843L11.3248 14.8814L11.3219 14.8772L11.3074 14.8702L11.2929 14.8632L11.29 14.859L11.2856 14.8562L11.2813 14.8533L11.2784 14.8491L11.2638 14.8421L11.2493 14.8351L11.2464 14.8309C11.2435 14.829 11.2019 14.799 11.1215 14.741C11.0421 14.682 10.9589 14.6057 10.8717 14.512C10.7846 14.4183 10.6975 14.32 10.6103 14.217C10.523 14.1138 10.4453 14.0033 10.378 13.8869C10.3102 13.7698 10.2386 13.6209 10.1631 13.4402C10.0885 13.2604 10.0319 13.0792 9.99314 12.8966C9.95443 12.7139 9.93264 12.5337 9.92779 12.3557C9.92296 12.1778 9.92779 12.0256 9.94232 11.8992C9.95684 11.7728 9.98588 11.63 10.0294 11.4708C10.073 11.3116 10.136 11.143 10.2182 10.9651L10.3417 10.6982L10.3489 10.6771L10.3562 10.656L10.3606 10.6532L10.3635 10.649L10.3664 10.6448L10.3707 10.642L10.3751 10.6448L10.378 10.649L10.3809 10.6532L10.3852 10.656L10.3896 10.6588L10.3925 10.663L10.3954 10.6673L10.3998 10.6701L10.407 10.6841L10.4143 10.6982L10.4187 10.701L10.4216 10.7052L10.6176 10.9159C10.7483 11.0564 10.9032 11.2132 11.0823 11.3865C11.2614 11.5597 11.3607 11.6496 11.38 11.6562C11.3994 11.6637 11.4236 11.6852 11.4526 11.7208C11.4817 11.7555 11.5785 11.8383 11.7431 11.9694C11.9077 12.1005 12.1231 12.2527 12.3893 12.426C12.6556 12.5992 12.9509 12.7701 13.2752 12.9387C13.5995 13.1073 13.9481 13.2594 14.3208 13.3952C14.6935 13.531 14.9549 13.62 15.105 13.6621C15.2551 13.7043 15.5116 13.7581 15.8747 13.8237C16.2377 13.8892 16.5113 13.9314 16.6952 13.9501C16.8792 13.9688 17.005 13.9796 17.0728 13.9824L17.1744 13.9852L17.1715 13.9642L17.1672 13.9431L17.1381 13.7675C17.1188 13.6504 17.1091 13.4865 17.1091 13.2758C17.1091 13.0651 17.126 12.8708 17.1599 12.6929C17.1938 12.5149 17.2446 12.3347 17.3124 12.1521C17.3802 11.9694 17.4465 11.8229 17.5114 11.7124C17.5772 11.6028 17.6634 11.4778 17.7699 11.3373C17.8764 11.1968 18.0143 11.0517 18.1837 10.9018C18.3532 10.752 18.5468 10.6186 18.7646 10.5015C18.9825 10.3844 19.1834 10.2955 19.3673 10.2346C19.5513 10.1737 19.7062 10.1339 19.832 10.1152C19.9579 10.0965 20.0208 10.0857 20.0208 10.0829Z" fill="#071210"/>
<circle cx="17" cy="16.5" r="16.25" stroke="#071210" stroke-width="0.5"/>
</svg>
