<svg width="22" height="22" viewBox="0 0 22 22" fill="none" xmlns="http://www.w3.org/2000/svg">
<path fill-rule="evenodd" clip-rule="evenodd" d="M11 1.14584C9.84521 1.14584 8.73771 1.60458 7.92115 2.42114C7.10459 3.23771 6.64584 4.34521 6.64584 5.5C6.64584 6.6548 7.10459 7.7623 7.92115 8.57886C8.73771 9.39543 9.84521 9.85417 11 9.85417C12.1548 9.85417 13.2623 9.39543 14.0789 8.57886C14.8954 7.7623 15.3542 6.6548 15.3542 5.5C15.3542 4.34521 14.8954 3.23771 14.0789 2.42114C13.2623 1.60458 12.1548 1.14584 11 1.14584ZM8.02084 5.5C8.02084 4.70988 8.33472 3.95212 8.89342 3.39341C9.45212 2.83471 10.2099 2.52084 11 2.52084C11.7901 2.52084 12.5479 2.83471 13.1066 3.39341C13.6653 3.95212 13.9792 4.70988 13.9792 5.5C13.9792 6.29013 13.6653 7.04789 13.1066 7.60659C12.5479 8.16529 11.7901 8.47917 11 8.47917C10.2099 8.47917 9.45212 8.16529 8.89342 7.60659C8.33472 7.04789 8.02084 6.29013 8.02084 5.5ZM11 11.2292C8.87976 11.2292 6.92543 11.7113 5.47801 12.5253C4.05168 13.3283 2.97918 14.5438 2.97918 16.0417V16.1352C2.97826 17.2003 2.97734 18.5368 4.14976 19.492C4.72634 19.9613 5.53393 20.2959 6.62476 20.5159C7.71743 20.7378 9.14284 20.8542 11 20.8542C12.8572 20.8542 14.2817 20.7378 15.3762 20.5159C16.467 20.2959 17.2737 19.9613 17.8512 19.492C19.0236 18.5368 19.0218 17.2003 19.0208 16.1352V16.0417C19.0208 14.5438 17.9483 13.3283 16.5229 12.5253C15.0746 11.7113 13.1212 11.2292 11 11.2292ZM4.35418 16.0417C4.35418 15.2616 4.92434 14.4146 6.15176 13.7243C7.35809 13.046 9.07043 12.6042 11.0009 12.6042C12.9296 12.6042 14.6419 13.046 15.8483 13.7243C17.0766 14.4146 17.6458 15.2616 17.6458 16.0417C17.6458 17.2407 17.6092 17.9153 16.9822 18.425C16.643 18.7018 16.0747 18.9723 15.103 19.1684C14.1341 19.3646 12.8095 19.4792 11 19.4792C9.19051 19.4792 7.86501 19.3646 6.89701 19.1684C5.92534 18.9723 5.35701 18.7018 5.01784 18.4259C4.39084 17.9153 4.35418 17.2407 4.35418 16.0417Z" fill="black"/>
</svg>
